<svg id="visual" viewBox="0 0 900 900" width="900" height="900" xmlns="http://www.w3.org/2000/svg" xmlns:xlink="http://www.w3.org/1999/xlink" version="1.1"><rect x="0" y="0" width="900" height="900" fill="#442c18"></rect><path d="M0 233L21.5 224.2C43 215.3 86 197.7 128.8 209.3C171.7 221 214.3 262 257.2 268.7C300 275.3 343 247.7 385.8 240.3C428.7 233 471.3 246 514.2 248.8C557 251.7 600 244.3 642.8 237.5C685.7 230.7 728.3 224.3 771.2 229.5C814 234.7 857 251.3 878.5 259.7L900 268L900 0L878.5 0C857 0 814 0 771.2 0C728.3 0 685.7 0 642.8 0C600 0 557 0 514.2 0C471.3 0 428.7 0 385.8 0C343 0 300 0 257.2 0C214.3 0 171.7 0 128.8 0C86 0 43 0 21.5 0L0 0Z" fill="#195c0e" stroke-linecap="round" stroke-linejoin="miter"></path></svg>